<?xml version="1.0" standalone="no"?>
<!DOCTYPE svg PUBLIC "-//W3C//DTD SVG 20010904//EN"
 "http://www.w3.org/TR/2001/REC-SVG-20010904/DTD/svg10.dtd">
<svg version="1.0" xmlns="http://www.w3.org/2000/svg"
 width="500.000000pt" height="500.000000pt" viewBox="0 0 500.000000 500.000000"
 preserveAspectRatio="xMidYMid meet">

<g transform="translate(0.000000,500.000000) scale(0.100000,-0.100000)"
fill="#000000" stroke="none">
<path d="M1406 4238 c-14 -19 -16 -75 -16 -405 l0 -382 -247 -3 -248 -3 -60
-29 c-73 -36 -135 -99 -172 -174 l-28 -57 0 -690 0 -690 33 -67 c63 -127 169
-194 329 -205 l82 -6 3 411 3 411 23 23 23 23 1357 3 c954 1 1365 -1 1383 -9
15 -5 31 -20 38 -32 8 -15 12 -146 14 -422 l2 -400 57 -3 c154 -8 285 68 359
208 l24 45 3 691 c2 680 2 693 -18 747 -28 73 -93 145 -172 188 l-63 34 -252
3 -253 4 0 384 c0 247 -4 392 -10 405 -10 19 -33 19 -1095 19 l-1084 0 -15
-22z m2102 -670 l-3 -593 -1002 -3 -1003 -2 0 595 0 595 1005 0 1005 0 -2
-592z"/>
<path d="M1163 2333 c-10 -4 -13 -93 -13 -399 l0 -394 24 -6 c13 -3 67 -4 120
-2 l96 3 0 -385 c0 -333 2 -389 16 -408 l15 -22 1079 0 c967 0 1080 2 1094 16
14 13 16 64 16 405 l0 389 109 0 c60 0 116 3 125 6 14 5 16 50 16 399 0 349
-2 394 -16 399 -19 7 -2663 7 -2681 -1z m2342 -928 l0 -580 -1002 -3 -1003 -2
0 585 0 585 1003 -2 1002 -3 0 -580z"/>
<path d="M1753 1764 c-3 -9 0 -20 8 -25 8 -5 168 -9 355 -9 271 0 344 3 353
13 27 34 -6 37 -361 37 -310 0 -349 -2 -355 -16z"/>
<path d="M1754 1525 c-3 -8 -3 -19 1 -25 10 -16 699 -14 714 3 27 34 -6 37
-361 37 -296 0 -349 -2 -354 -15z"/>
<path d="M1761 1291 c-8 -5 -11 -16 -8 -25 6 -14 74 -16 710 -16 572 0 707 2
716 13 29 36 4 37 -709 37 -385 0 -701 -4 -709 -9z"/>
<path d="M1761 1051 c-8 -5 -11 -16 -8 -25 6 -14 74 -16 710 -16 572 0 707 2
716 13 29 36 4 37 -709 37 -385 0 -701 -4 -709 -9z"/>
</g>
</svg>
